<?xml version="1.0" standalone="no"?>
<!DOCTYPE svg PUBLIC "-//W3C//DTD SVG 20010904//EN"
 "http://www.w3.org/TR/2001/REC-SVG-20010904/DTD/svg10.dtd">
<svg version="1.0" xmlns="http://www.w3.org/2000/svg"
 width="128.000000pt" height="128.000000pt" viewBox="0 0 128.000000 128.000000"
 preserveAspectRatio="xMidYMid meet">
<metadata>
Created by potrace 1.11, written by Peter Selinger 2001-2013
</metadata>
<g transform="translate(0.000000,128.000000) scale(0.100000,-0.100000)"
fill="#000000" stroke="none">
<path d="M533 984 c-47 -27 -88 -88 -98 -145 -20 -111 83 -229 201 -229 206 0
278 276 99 377 -58 33 -145 32 -202 -3z m176 -34 c90 -45 112 -165 45 -239
-58 -65 -128 -76 -202 -31 -71 44 -95 143 -49 211 51 76 130 98 206 59z"/>
<path d="M620 858 c0 -20 -1 -20 -13 -4 -26 35 -107 -3 -107 -50 0 -35 29 -44
140 -44 56 0 110 5 121 10 24 13 25 61 2 82 -34 29 -43 30 -52 6 l-10 -23 0
23 c-1 13 -7 22 -16 22 -9 0 -15 -9 -16 -22 l0 -23 -9 23 c-12 29 -40 29 -40
0z"/>
<path d="M1092 515 c3 -39 1 -52 -6 -45 -5 5 -26 10 -46 10 -39 0 -74 -27 -83
-65 -4 -18 -5 -18 -6 3 -2 38 -35 62 -88 62 -27 0 -58 -3 -70 -6 -19 -5 -20
-9 -11 -30 9 -19 16 -23 32 -17 37 12 60 9 64 -9 3 -15 -4 -18 -35 -18 -21 0
-48 -7 -60 -15 -20 -14 -21 -13 -27 20 -14 72 -119 103 -171 50 l-25 -24 0 24
c0 19 -5 25 -23 25 -12 0 -33 -7 -45 -16 -20 -14 -22 -14 -22 0 0 10 -9 16
-25 16 l-25 0 0 -105 0 -105 30 0 c30 0 30 0 30 56 0 71 12 94 51 94 26 0 29
-3 23 -24 -9 -39 14 -94 46 -111 43 -22 126 -20 142 4 14 20 14 20 26 0 14
-22 90 -27 111 -6 11 10 14 10 18 0 3 -7 16 -13 29 -13 21 0 24 5 25 43 1 23
3 33 6 22 9 -38 44 -65 83 -65 20 0 41 5 47 11 8 8 13 8 17 0 4 -6 18 -11 32
-11 l24 0 0 150 0 150 -36 0 -36 0 4 -55z m-418 -81 c30 -12 18 -34 -19 -34
-38 0 -46 13 -17 29 21 13 17 12 36 5z m410 -20 c9 -8 16 -26 16 -39 0 -21
-23 -55 -36 -55 -22 0 -44 25 -44 50 0 27 22 60 40 60 5 0 16 -7 24 -16z
m-204 -63 c0 -24 -25 -45 -45 -37 -20 7 -19 33 3 45 26 16 42 13 42 -8z m-127
-11 c-3 -10 -8 -19 -12 -18 -3 1 -23 -2 -44 -7 -30 -6 -42 -4 -57 10 -11 10
-20 22 -20 27 0 4 31 8 69 8 64 0 69 -2 64 -20z"/>
<path d="M110 535 c0 -20 5 -25 25 -25 20 0 25 5 25 25 0 20 -5 25 -25 25 -20
0 -25 -5 -25 -25z"/>
<path d="M190 410 l0 -140 79 0 c69 0 84 3 107 23 31 27 37 78 12 103 -14 14
-14 20 -2 43 20 38 17 59 -11 86 -22 22 -32 25 -105 25 l-80 0 0 -140z m124
84 c21 -8 21 -40 0 -48 -37 -14 -54 -7 -54 24 0 31 17 38 54 24z m7 -114 c10
-6 19 -15 19 -20 0 -17 -32 -40 -56 -40 -21 0 -24 5 -24 35 0 29 4 35 21 35
11 0 29 -5 40 -10z"/>
<path d="M110 375 l0 -105 25 0 25 0 0 105 0 105 -25 0 -25 0 0 -105z"/>
</g>
</svg>
